<svg xmlns="http://www.w3.org/2000/svg" viewBox="0 0 1200 420" width="1200" height="420" role="img" aria-label="SpaceCompute Cloud: a composed grid assembles and a sweep resolves it"><title>SpaceCompute Cloud — DUNG30N5 × NOAERTH</title><desc>SpaceCompute Cloud. a composed surface meant to be read by a person. Motion: a composed grid assembles and a sweep resolves it. Identity family PRESENTATION resolved from typed web surface with 2 route handlers.</desc><rect width="1200" height="420" fill="#f7f5f0"/><text x="72" y="108" font-family="ui-monospace, SFMono-Regular, Menlo, Monaco, Consolas, 'Liberation Mono', monospace" font-size="11" letter-spacing="2.6" fill="#14171c4f">SPACE · PRESENTATION</text><text x="72" y="168" font-family="-apple-system, BlinkMacSystemFont, 'Segoe UI', Inter, Helvetica, Arial, sans-serif" font-size="44" font-weight="660" letter-spacing="-1.2" fill="#14171c">SpaceCompute Cloud</text><text x="72" y="204" font-family="-apple-system, BlinkMacSystemFont, 'Segoe UI', Inter, Helvetica, Arial, sans-serif" font-size="15" fill="#14171ca8">SpaceCompute Cloud MVP: orbit-edge workload planner and</text><text x="72" y="226" font-family="-apple-system, BlinkMacSystemFont, 'Segoe UI', Inter, Helvetica, Arial, sans-serif" font-size="15" fill="#14171ca8">deployment dashboard for satellite AI workloads.</text><text x="72" y="268" font-family="ui-monospace, SFMono-Regular, Menlo, Monaco, Consolas, 'Liberation Mono', monospace" font-size="11" fill="#14171c4f">HTTP API · file-backed JSON</text><rect x="72.0" y="292.0" width="70.0" height="34.0" rx="8" fill="#14171c" stroke="#14171c1f" stroke-width="1.1"></rect><rect x="72.0" y="292.0" width="2.5" height="34.0" rx="1.2" fill="mint" opacity="0.92"/><text x="107.0" y="314" font-family="ui-monospace, SFMono-Regular, Menlo, Monaco, Consolas, 'Liberation Mono', monospace" font-size="11" fill="#14171c" fill-opacity="0.82" text-anchor="middle">plans</text><rect x="158.0" y="292.0" width="75.0" height="34.0" rx="8" fill="#14171c" stroke="#14171c1f" stroke-width="1.1"></rect><rect x="158.0" y="292.0" width="2.5" height="34.0" rx="1.2" fill="violet" opacity="0.92"/><text x="195.5" y="314" font-family="ui-monospace, SFMono-Regular, Menlo, Monaco, Consolas, 'Liberation Mono', monospace" font-size="11" fill="#14171c" fill-opacity="0.82" text-anchor="middle">plans/[id]</text><rect x="726.0" y="84.0" width="412.0" height="252.0" rx="14" fill="mint" fill-opacity="0.12"/><rect x="729.0" y="87.0" width="406.0" height="246.0" rx="12" fill="none" stroke="mint" stroke-width="1" stroke-opacity="0.18"/><line x1="746.1" y1="103.6" x2="819.9" y2="102.5" stroke="#14171c1f" stroke-width="0.9"/><line x1="819.9" y1="102.5" x2="894.4" y2="102.0" stroke="#14171c1f" stroke-width="0.9"/><line x1="894.4" y1="102.0" x2="975.2" y2="106.2" stroke="#14171c1f" stroke-width="0.9"/><line x1="975.2" y1="106.2" x2="1047.6" y2="104.1" stroke="#14171c1f" stroke-width="0.9"/><line x1="1047.6" y1="104.1" x2="1127.1" y2="107.3" stroke="#14171c1f" stroke-width="0.9"/><line x1="753.2" y1="216.9" x2="823.4" y2="213.2" stroke="#14171c1f" stroke-width="0.9"/><line x1="823.4" y1="213.2" x2="896.5" y2="211.6" stroke="#14171c1f" stroke-width="0.9"/><line x1="896.5" y1="211.6" x2="970.3" y2="210.5" stroke="#14171c1f" stroke-width="0.9"/><line x1="970.3" y1="210.5" x2="1051.2" y2="214.8" stroke="#14171c1f" stroke-width="0.9"/><line x1="1051.2" y1="214.8" x2="1129.2" y2="216.9" stroke="#14171c1f" stroke-width="0.9"/><line x1="748.2" y1="321.2" x2="821.3" y2="319.6" stroke="#14171c1f" stroke-width="0.9"/><line x1="821.3" y1="319.6" x2="901.5" y2="323.3" stroke="#14171c1f" stroke-width="0.9"/><line x1="901.5" y1="323.3" x2="978.8" y2="324.9" stroke="#14171c1f" stroke-width="0.9"/><line x1="978.8" y1="324.9" x2="1055.4" y2="325.9" stroke="#14171c1f" stroke-width="0.9"/><line x1="1055.4" y1="325.9" x2="1124.9" y2="321.7" stroke="#14171c1f" stroke-width="0.9"/><circle cx="746.1" cy="103.6" r="2.4" fill="mint" opacity="0.55"/><circle cx="819.9" cy="102.5" r="2.4" fill="mint" opacity="0.55"/><circle cx="894.4" cy="102.0" r="2.4" fill="mint" opacity="0.55"/><circle cx="975.2" cy="106.2" r="2.4" fill="mint" opacity="0.55"/><circle cx="1047.6" cy="104.1" r="2.4" fill="mint" opacity="0.55"/><circle cx="1127.1" cy="107.3" r="2.4" fill="mint" opacity="0.55"/><circle cx="753.2" cy="216.9" r="2.4" fill="mint" opacity="0.55"/><circle cx="823.4" cy="213.2" r="2.4" fill="mint" opacity="0.55"/><circle cx="896.5" cy="211.6" r="2.4" fill="mint" opacity="0.55"/><circle cx="970.3" cy="210.5" r="2.4" fill="mint" opacity="0.55"/><circle cx="1051.2" cy="214.8" r="2.4" fill="mint" opacity="0.55"/><circle cx="1129.2" cy="216.9" r="2.4" fill="mint" opacity="0.55"/><circle cx="748.2" cy="321.2" r="2.4" fill="mint" opacity="0.55"/><circle cx="821.3" cy="319.6" r="2.4" fill="mint" opacity="0.55"/><circle cx="901.5" cy="323.3" r="2.4" fill="mint" opacity="0.55"/><circle cx="978.8" cy="324.9" r="2.4" fill="mint" opacity="0.55"/><circle cx="1055.4" cy="325.9" r="2.4" fill="mint" opacity="0.55"/><circle cx="1124.9" cy="321.7" r="2.4" fill="mint" opacity="0.55"/><rect x="726.0" y="84.0" width="412.0" height="3" rx="1.5" fill="mint" opacity="0.35"/><path d="M1095.0 302.0 l9 -9 l9 9 l-9 9 z" fill="none" stroke="violet" stroke-width="1.4" opacity="0.6"/><rect x="754" y="118" width="50" height="52" rx="8" fill="mint" fill-opacity="0.08" stroke="mint" stroke-width="1" stroke-opacity="0.4" opacity="0.85"/><rect x="828" y="118" width="64" height="52" rx="8" fill="mint" fill-opacity="0.08" stroke="mint" stroke-width="1" stroke-opacity="0.4" opacity="0.85"/><rect x="902" y="118" width="64" height="52" rx="8" fill="mint" fill-opacity="0.08" stroke="mint" stroke-width="1" stroke-opacity="0.4" opacity="0.85"/><rect x="976" y="118" width="50" height="52" rx="8" fill="mint" fill-opacity="0.08" stroke="mint" stroke-width="1" stroke-opacity="0.4" opacity="0.85"/><rect x="1050" y="118" width="64" height="52" rx="8" fill="mint" fill-opacity="0.08" stroke="mint" stroke-width="1" stroke-opacity="0.4" opacity="0.85"/><rect x="754" y="184" width="64" height="52" rx="8" fill="mint" fill-opacity="0.08" stroke="mint" stroke-width="1" stroke-opacity="0.4" opacity="0.85"/><rect x="828" y="184" width="64" height="52" rx="8" fill="mint" fill-opacity="0.08" stroke="mint" stroke-width="1" stroke-opacity="0.4" opacity="0.85"/><rect x="902" y="184" width="50" height="52" rx="8" fill="mint" fill-opacity="0.08" stroke="mint" stroke-width="1" stroke-opacity="0.4" opacity="0.85"/><rect x="976" y="184" width="64" height="52" rx="8" fill="mint" fill-opacity="0.08" stroke="mint" stroke-width="1" stroke-opacity="0.4" opacity="0.85"/><rect x="1050" y="184" width="64" height="52" rx="8" fill="mint" fill-opacity="0.08" stroke="mint" stroke-width="1" stroke-opacity="0.4" opacity="0.85"/><rect x="754" y="250" width="64" height="52" rx="8" fill="mint" fill-opacity="0.08" stroke="mint" stroke-width="1" stroke-opacity="0.4" opacity="0.85"/><rect x="828" y="250" width="50" height="52" rx="8" fill="mint" fill-opacity="0.08" stroke="mint" stroke-width="1" stroke-opacity="0.4" opacity="0.85"/><rect x="902" y="250" width="64" height="52" rx="8" fill="mint" fill-opacity="0.08" stroke="mint" stroke-width="1" stroke-opacity="0.4" opacity="0.85"/><rect x="976" y="250" width="64" height="52" rx="8" fill="mint" fill-opacity="0.08" stroke="mint" stroke-width="1" stroke-opacity="0.4" opacity="0.85"/><rect x="1050" y="250" width="50" height="52" rx="8" fill="mint" fill-opacity="0.08" stroke="mint" stroke-width="1" stroke-opacity="0.4" opacity="0.85"/><line x1="1118" y1="110" x2="1118" y2="316" stroke="violet" stroke-width="1.4" opacity="0.14"/><text x="72" y="388" font-family="ui-monospace, SFMono-Regular, Menlo, Monaco, Consolas, 'Liberation Mono', monospace" font-size="10.5" letter-spacing="2.1" fill="#14171c4f">DUNG30N5 × NOAERTH · V6 · type_rail</text></svg>